<svg width="128" height="128" fill="none" xmlns="http://www.w3.org/2000/svg"><path fill-rule="evenodd" clip-rule="evenodd" d="M64 0c42.667 0 64 21.333 64 64s-21.333 64-64 64S0 106.667 0 64 21.333 0 64 0ZM52.398 108.336c.568 0 1.03-.063 1.383-.188.672-.239 1.008-.684 1.008-1.336 0-.38-.167-.674-.5-.882-.333-.203-.857-.383-1.57-.539l-1.219-.274c-1.198-.271-2.026-.565-2.484-.883-.776-.531-1.164-1.362-1.164-2.492 0-1.031.375-1.888 1.125-2.57.75-.682 1.851-1.024 3.304-1.024 1.214 0 2.248.323 3.102.97.86.64 1.31 1.572 1.351 2.796h-2.312c-.042-.693-.344-1.185-.906-1.476-.375-.193-.841-.29-1.399-.29-.62 0-1.114.125-1.484.375-.37.25-.555.599-.555 1.047 0 .412.182.719.547.922.234.136.734.294 1.5.477l1.984.476c.87.209 1.526.487 1.97.836.687.542 1.03 1.326 1.03 2.352 0 1.052-.403 1.927-1.21 2.625-.803.693-1.938 1.039-3.407 1.039-1.5 0-2.68-.341-3.539-1.024-.86-.687-1.289-1.63-1.289-2.828h2.297c.073.526.216.92.43 1.18.39.474 1.06.711 2.007.711Zm10.672 0c.568 0 1.029-.063 1.383-.188.672-.239 1.008-.684 1.008-1.336 0-.38-.167-.674-.5-.882-.333-.203-.857-.383-1.57-.539l-1.22-.274c-1.197-.271-2.025-.565-2.483-.883-.777-.531-1.165-1.362-1.165-2.492 0-1.031.375-1.888 1.125-2.57.75-.682 1.852-1.024 3.305-1.024 1.214 0 2.248.323 3.102.97.86.64 1.31 1.572 1.351 2.796h-2.312c-.042-.693-.344-1.185-.906-1.476-.376-.193-.842-.29-1.399-.29-.62 0-1.114.125-1.484.375-.37.25-.555.599-.555 1.047 0 .412.182.719.547.922.234.136.734.294 1.5.477l1.984.476c.87.209 1.526.487 1.969.836.688.542 1.031 1.326 1.031 2.352 0 1.052-.403 1.927-1.21 2.625-.803.693-1.938 1.039-3.407 1.039-1.5 0-2.68-.341-3.539-1.024-.86-.687-1.29-1.63-1.29-2.828h2.298c.073.526.216.92.43 1.18.39.474 1.06.711 2.007.711Zm13.555 1.383c-.635.39-1.417.586-2.344.586-1.526 0-2.776-.529-3.75-1.586-1.015-1.063-1.523-2.516-1.523-4.36 0-1.864.513-3.359 1.539-4.484 1.026-1.125 2.383-1.688 4.07-1.688 1.464 0 2.638.373 3.524 1.118.89.739 1.4 1.664 1.53 2.773h-2.366c-.183-.786-.628-1.336-1.336-1.648a3.28 3.28 0 0 0-1.32-.258c-.928 0-1.69.351-2.29 1.055-.593.697-.89 1.75-.89 3.156 0 1.416.323 2.419.969 3.008.645.588 1.38.882 2.203.882.807 0 1.468-.231 1.984-.695.516-.469.833-1.081.953-1.836h-2.664v-1.922h4.797V110h-1.594l-.242-1.438c-.463.547-.88.933-1.25 1.157ZM14 51c0-6.627 5.373-12 12-12h76c6.627 0 12 5.373 12 12v26c0 6.627-5.373 12-12 12H26c-6.627 0-12-5.373-12-12V51Zm13.102 8.227V72h-3.387V59.227h3.387Zm0-4.606v3.082h-3.387v-3.082h3.387ZM37.872 72h-3.423V60.281h-3.996v-2.273c1.055-.047 1.793-.117 2.215-.211.672-.149 1.219-.445 1.64-.89.29-.305.508-.712.657-1.22.086-.304.129-.53.129-.68h2.777V72Zm6.374-1.066c-.977-1-1.465-2.215-1.465-3.645 0-.953.215-1.816.645-2.59.437-.773 1.074-1.355 1.91-1.746-.82-.547-1.355-1.137-1.605-1.77-.243-.64-.364-1.238-.364-1.792 0-1.235.465-2.285 1.395-3.153.93-.875 2.242-1.312 3.937-1.312 1.696 0 3.008.437 3.938 1.312.93.867 1.394 1.918 1.394 3.153 0 .554-.125 1.152-.375 1.793-.242.632-.773 1.183-1.593 1.652.835.469 1.464 1.09 1.886 1.863.422.774.633 1.637.633 2.59 0 1.43-.531 2.648-1.594 3.656-1.054 1-2.531 1.5-4.43 1.5-1.898 0-3.335-.504-4.312-1.511Zm2.004-3.868c0 .836.215 1.485.645 1.946.437.46 1.039.691 1.804.691.766 0 1.364-.23 1.793-.691.438-.461.656-1.11.656-1.946 0-.867-.222-1.523-.668-1.968-.437-.454-1.03-.68-1.78-.68s-1.348.226-1.794.68c-.437.445-.656 1.101-.656 1.968Zm.879-5.789c.375.391.898.586 1.57.586.68 0 1.203-.195 1.57-.586.376-.39.563-.894.563-1.511 0-.672-.188-1.196-.563-1.57-.367-.383-.89-.575-1.57-.575-.672 0-1.199.191-1.582.574-.375.375-.562.899-.562 1.57 0 .618.191 1.122.574 1.512Zm15.95.422c-1.134 0-1.911.48-2.333 1.442-.219.507-.328 1.156-.328 1.945V72H57.09V59.25h3.222v1.863c.43-.656.836-1.129 1.22-1.418.687-.515 1.558-.773 2.612-.773 1.32 0 2.399.348 3.235 1.043.844.687 1.265 1.832 1.265 3.433V72h-3.421v-7.77c0-.671-.09-1.187-.27-1.546-.328-.657-.953-.985-1.875-.985Zm19.593 6.551c-.086.758-.48 1.527-1.184 2.309-1.094 1.242-2.625 1.863-4.594 1.863-1.625 0-3.058-.524-4.3-1.57-1.242-1.047-1.863-2.75-1.863-5.11 0-2.21.558-3.906 1.675-5.086 1.125-1.18 2.582-1.77 4.371-1.77 1.063 0 2.02.2 2.871.598.852.399 1.555 1.028 2.11 1.887.5.758.824 1.637.973 2.637.085.586.12 1.43.105 2.531h-8.742c.047 1.281.449 2.18 1.207 2.695.46.32 1.015.48 1.664.48.687 0 1.246-.195 1.676-.585.234-.211.441-.504.62-.879h3.41Zm-3.305-3.914c-.055-.883-.324-1.55-.808-2.004-.477-.46-1.07-.691-1.782-.691-.773 0-1.375.242-1.804.726-.422.485-.688 1.14-.797 1.969h5.191ZM96.477 72h-4.16l-2.204-3.832L87.898 72h-4.054l4.36-6.469-4.173-6.281h4.09l2.133 3.703 2.086-3.703h3.972l-4.195 6.223L96.477 72Zm7.828-2.379v2.496l-1.582.059c-1.578.055-2.657-.219-3.235-.82-.375-.383-.562-.973-.562-1.77v-7.863h-1.782v-2.38h1.782v-3.562h3.304v3.563h2.075v2.379h-2.075v6.75c0 .523.067.851.2.984.132.125.539.188 1.218.188h.317l.34-.024Z" fill="#000"/></svg>